<svg id="Layer_1" data-name="Layer 1" xmlns="http://www.w3.org/2000/svg" viewBox="0 0 267.4 275.71"><path d="M107,131.58a12.56,12.56,0,0,0-1.9-2.36c.18-.67.38-1.25.4.25,0-2.38.72-4.3-.08-5.4.8,1.1-6.06-.61-9-2.1l-1.09-.79a1.71,1.71,0,0,0-.15-.54c-.13.13-.1.28,0,.44-.84-.58-1.68-1.17-2.55-1.76,1-.24.34-.45-.8-.54-1.57-1-3.17-2.08-4.79-3.06,0-.2,0-.34.14-.35a3.12,3.12,0,0,0-.58.08c-2.16-1.32-4.33-2.55-6.42-3.64a.35.35,0,0,1,0-.21.45.45,0,0,0-.07.19q-1.27-.67-2.52-1.26c0-.09-.08-.33-.23-.36a2,2,0,0,0,.16.33c-.82-.4-1.62-.76-2.39-1.09.28-.55.66-1.85-.41-.18a11.32,11.32,0,0,1,.71-2c-.36.38-1.38,1.39-1.38,1.39a2,2,0,0,1-.3-.58,7.45,7.45,0,0,0-.34-.69,1.07,1.07,0,0,1-.64.71,1.75,1.75,0,0,1,.64-.71c-.22-.38-.51-.64-.83-.32q2.26-1.35-3.27-1.63c.07,0,1.22,1.5,1.9,1.59-.06,0-.08,0-.18.11.16.25.23.31.2.18a1,1,0,0,0,.46.47,1,1,0,0,1-.3.26l-.57-.17c-.4-.48-.7-1.47-1.45-.73a1.13,1.13,0,0,0-.24.36c-2.24-.36-3.75,0-4.11,1.49-.91,3.63,3.78,8,9.1,11.68-1.57,3.16-3.94,8.05-4.68,5.73-.16.64-.62,2.84-1,5.44-.1-.15-.24-.26-.38-.18s0,.69.28.84a54.93,54.93,0,0,0-.6,6,15.43,15.43,0,0,0-.24,6.3c-.38,1.92,1.75,5.17,4,7.69.13,0,.47.41.47.41,2,2.25,4.07,3.75,4.12,2.77a7,7,0,0,0-.25-2.64,9.8,9.8,0,0,0,2.42-.06c-.29.92-.58,2-.9,3.24-10.25,10.68,2-1.38,3.07-3.77a.39.39,0,0,0,.05.26c.38-.41.47-.56.31-.42a.37.37,0,0,0-.3,0l.18-.08a8,8,0,0,0,1.14-.65,12.19,12.19,0,0,0-2.27,3.6c.62,1,6.17-5.53,5.55-6a1.39,1.39,0,0,0-1.57,1c0-.07,0-.18.07-.27a6.86,6.86,0,0,0,.53-.76c.89-.31,1.6-2.43,2-5.44l.77-1.79c0-.84.31-1.19.47-1.11,1.4-3.34,2.48-6.27,1.72-6.3a12.22,12.22,0,0,1-1.79,3.94c-.24-.1,2-6.07.66-9.85C93,130.39,109.14,135.44,107,131.58ZM72.16,106.5l-.42.86C71.38,107.56,71.28,107.44,72.16,106.5Zm32.75,22.57-.16-.16a3.14,3.14,0,0,0,.28-.85C105,128.48,104.94,128.8,104.91,129.07ZM78.29,139.5c.07.16.12.32.18.47-.27,1.73-.49,3.32-.65,4.53A22.13,22.13,0,0,1,78.29,139.5Zm-3.49-1.58a26.29,26.29,0,0,1,.66-2.77c.13-.44.3-.87.47-1.3,0,.08.07.16.1.25a47,47,0,0,0-1.33,6.65A11.74,11.74,0,0,1,74.8,137.92Zm9.92-3.08a6.15,6.15,0,0,1,0,.77c0-.14-.06-.28-.08-.42S84.7,135,84.72,134.84Zm16.5-9.1Zm3.36,1.32c.28-.43.33-.23.15.59C104.73,127.65,104,127.58,104.58,127.06Zm-2-2.16a13.49,13.49,0,0,0-1.44-.66C101.69,124.16,102.88,123.89,102.57,124.9Zm-2-.1c.11-.09,0,.18-.16.3C100.37,125,100.6,124.8,100.6,124.8ZM75,153.22a4.1,4.1,0,0,1-.41-.44l.6.13A1.62,1.62,0,0,1,75,153.22Zm13-21.63.17-.09Zm-1.06-2.75c-.31,0-.07-.33.16-.59l.78.29C87.82,128.69,87.51,128.78,86.93,128.84Z" transform="translate(-8.53 -5.85)"/><path d="M273.11,116.84c-7.56-36.62-29.78-72.56-62.48-91.64C195,16.05,176,8,157.81,5.92c-2.47-.28-15.07.19-27.26,1.91-3.6-.39-6.68-.61-7.27-.56a26.5,26.5,0,0,0-10.88,2.9l5-.3a11.28,11.28,0,0,1-.92.75c-1.33.38-2.57.78-3.71,1.21a2.07,2.07,0,0,1-.7-.49,2.93,2.93,0,0,1-.51-.71,37.62,37.62,0,0,0-5,3.68,123.12,123.12,0,0,0-15.59,6.26,1.54,1.54,0,0,1,0-1.34c-3.2,1.63-19.34,11.38-18.63,11.82,1-.46,1.95-1,2.93-1.5-.48.31-1,.61-1.43.93C65.36,35.2,51.75,43.11,50.57,48.71l.89.57c-.17.18-.35.36-.52.55-.15-.27-.32-.49-.46-.78-.56,1.06-1.21,2.14-1.9,3.23A156.9,156.9,0,0,0,30.46,75.87a83.9,83.9,0,0,0-10.56,18c-2.45,6.06-12.25,30.4-10.32,38.48A118.36,118.36,0,0,0,8.6,152c0,.65.1,1.29.13,1.93-.52,3,.62,9.87,1.94,16.12a130.58,130.58,0,0,0,24.22,54c2.4,4.69,7.55,9.92,11.85,13.88a148.11,148.11,0,0,0,22.08,18.67,28.15,28.15,0,0,1,2.72,3.63c3.36,5.54,7.9,4.48,12.32,5.44,23.23,12.22,49.67,18.15,76.16,15.18C238.52,272,288.65,192.14,273.11,116.84ZM253.43,203.9c.18-.36.37-.7.58-1C253.83,203.21,253.64,203.54,253.43,203.9ZM229.91,52.39l.53.57a5.48,5.48,0,0,0-.82.31ZM142.26,272.82c-3.74-1.45-13.36-2.41-16.94-1.87-1.82-.33-3.63-.69-5.43-1.1-1.72-3.2-4.54-5.61-7.47-2-1.34-.39-2.67-.78-4-1.22-4.53-3-11.77-7.06-14.77-5.88q-2.79-1.31-5.5-2.73c-3.56-2.38-7.74-5.52-8.71-6.23a12,12,0,0,0-5.62-2.41,139,139,0,0,1-19.89-16.67c.57-1.34-2.74-3.41-3.33-4.32a1,1,0,0,0-.88-.14l-1.45-1.62c.34.12.67.23,1,.4a14.29,14.29,0,0,0-2.58-2.16,124.09,124.09,0,0,1-27.2-55.36c-.71-3.55-1.18-7.12-1.54-10.68a1.37,1.37,0,0,0-.2-2,115.65,115.65,0,0,1,.91-26.24c.35-.87.71-1.35,1.06-1.24.27-2.58.43-5.27.66-8.13A136.76,136.76,0,0,1,46.28,66.69,65.07,65.07,0,0,1,57.9,55a9.25,9.25,0,0,1-1.3-.37c.62-.64,1.22-1.31,1.85-1.94,2.37.11,4.17-1.9,9.31-6.05,4.95-4,10-5.08,7.51-8.14.64-.46,1.29-.89,1.94-1.34l.73,1.23c4.22-3.45,8.73-5.41,11-8.47,1.16-.64,2.35-1.24,3.53-1.85a2.14,2.14,0,0,1,0,.49l3.71-2-.26-.22,1.25-.62c0,.1,0,.18,0,.29a59.7,59.7,0,0,1,15.55-6.17c7.06-.62,22.89.12,26.82-.82,7.35-1.78,13.68,2,23.4-2.07.58-.24-.68-.65-2-1a88.84,88.84,0,0,1,14.28,2.89c-4.13,4.79,6.1,4.22,12.25,4.33,1.34.55,2.66,1.14,4,1.74a11,11,0,0,1-2,2c2.3,2.18,9.39,3.35,15,5,2.62,1.59,5.14,3.26,7.55,5,0,3.63,6.44,6.28,8.08,6.85,5.35,1.85,15.18,24.76,22.37,23.86q1.89,2.59,3.66,5.3c.26,2.41.33,5,2,8.12.36-2,1-2.27,1.85-2,.5.86,1,1.73,1.46,2.59-2.71,3,2.91,8,3.56,11.88.45-.81.89-1.61,1.35-2.42.48,1,.92,2.07,1.37,3.11a6.08,6.08,0,0,0-2.36.23q2,4.6,3.79,9.31a3.56,3.56,0,0,1,2-1.2c.26.7.5,1.4.74,2.1a5,5,0,0,1-2.26.47c.59,5.1,1.7,7.26,4.66,7.26.36,1.31.74,2.6,1.06,3.9a25.21,25.21,0,0,0-2.69-.77c1.5,6.66,2.83,11.79,5.28,16,.34,3.25.57,6.51.63,9.78-2.9,1.49-5.48,3.45-2.07,7.74a4,4,0,0,1,2.05-2.08c-.09,3.24-.33,6.47-.67,9.7-2.84,4.24-4.08,9.57-5.33,15.69.95.23,1.77.43,2.54.59-.15.66-.3,1.32-.46,2-.31-.11-.59-.23-.93-.34a7.75,7.75,0,0,1,.5,2c-.67,2.52-1.42,5-2.24,7.49-.81,1.27-1.71,2.48-2.56,3.6a7,7,0,0,0,1.38-.11c-.78,2.16-1.61,4.29-2.5,6.41a7.53,7.53,0,0,0-1.59-1.8c-2.41,7.23-5.16,15.21-9.18,21.67a2.47,2.47,0,0,1,.29.46q-1.52,2.43-3.14,4.81c.1-.59.21-1.18.35-1.76a156.64,156.64,0,0,1-22.17,26.13,2.29,2.29,0,0,0,.23.21A121.7,121.7,0,0,1,201.1,259l-.28-.56c-2.61,1.47-8.68,4.11-9.36,4.73.16.16.32.25.48.39q-2.52,1.11-5.1,2.11c-3.25.35-6.88,1.19-7.79,1.38a2.54,2.54,0,0,1,2,.66c-3.34,1.06-6.73,2-10.19,2.74-2,.43-4.06.81-6.09,1.13,0-.19,0-.37.05-.57a30.62,30.62,0,0,1-8.17-.09,3.66,3.66,0,0,1,1.07,1.54A115.23,115.23,0,0,1,142.26,272.82Z" transform="translate(-8.53 -5.85)"/><path d="M179.15,128.67c.73,1,1.21,2,1.7,2.72-.68,1-.71,1.72.35,1.83,2.35.25,7.21-1.55,12.8-4.47,0,.35.28.94.55.71s0-.68-.23-.88l.91-.49c0,.74.05,1.53.11,2.35a6.49,6.49,0,0,0-.24.83,19.88,19.88,0,0,0,2.12,13.81,4.72,4.72,0,0,0,.48.56c1.34,4.74,3.16,7.78,5.39,5.85-2.53,3.17,1.07-.65,0,1.78.31-.7.54-1.23.72-1.69a6.94,6.94,0,0,0,6.14.93c0,.91.08,1.91.17,3.08,0-.08.61-2.08.93-3.5a10.67,10.67,0,0,0,1-.53,10,10,0,0,0-.29,2.2c.51.38,1.77-2,2.66-4.18a11.11,11.11,0,0,0,3-6.73,32.92,32.92,0,0,0-.18-5.34c0,.09.05.16.19.18,1.6.3.6-1.47.19-1a1.77,1.77,0,0,0-.38.78c-.11-.93-.24-1.85-.41-2.78.45-2.14.66-3.68.24-3.66a13.54,13.54,0,0,1-.52,2.2c-.14-.65-.28-1.29-.44-1.94.12-2.4,0-5.32-1.33-7.15,0,.06-.08.1-.5.26l-.34-.1c0-.14-.09-.27-.14-.4a2.39,2.39,0,0,1,.8,0,3.7,3.7,0,0,0-1.14-.94c-.35-.92-.7-1.83-1.06-2.73a2.48,2.48,0,0,1,.71.3,5.35,5.35,0,0,1-.25-.74c-.52-.86-1.11-1.75-1.5-2.33,8.23-6.67,13.8-13.79,9.8-17.78-3-3-8.55,1.76-13.54,7-1.38-1.39-.84.22-.35.37-2.73,2.92-5.25,5.93-7,7.86-.33-.52-.9-.93-1.5,0a2.7,2.7,0,0,0,.11,1.41l-.22.21c-.14.12-.54.42-1.07.81a6.2,6.2,0,0,0-1.28-.38c.91,1.22-3.54,2-4.66,1.81-.68.54-1.3,1.14-2,1.71a.71.71,0,0,0-.15-.22c-.1-.07-.13.16-.09.41-2.68,2.08-6.49,3.68-8.27,5.57,0,.07,0,.11.06.19l-.24.11a2.39,2.39,0,0,0-.52,2.91C177.59,125,181.14,131.37,179.15,128.67Zm20.58,20.58.25.47C199.8,149.68,198.59,149.39,199.73,149.25Zm8.21-4.22a6.11,6.11,0,0,1-.42-1.27,6.65,6.65,0,0,0,1.24,1.48C208.54,145.62,208.26,145.64,207.94,145Zm7.7-16.84.16-.11Zm-1-3.6c.91.39.81.7-.3.88a.82.82,0,0,1-.12-.22A2.14,2.14,0,0,1,214.63,124.59Zm-29.22,2.17-.13.11C185.24,126.73,185.31,126.72,185.41,126.76Zm-.52-1.63c.86,3-1.35-1.54,0,0Zm-.64.45c1.05,2.06.07.52,0,.37S184.16,125.56,184.25,125.58Zm-.82.26c.15-.91,2.63,3.33,0,0Zm-2.11,4.1c0,.52-.14.41-.49-.34C180.86,129.6,181.5,129.13,181.32,129.94Z" transform="translate(-8.53 -5.85)"/><path d="M185.57,205.64a3.61,3.61,0,0,0-.36.46c-.35-.93-.74-1.88-1.17-2.84.6,0,1.54-1.14,3.09,1.81-2.7-5.1-2-.88-3.25-2.17-.43-.91-.9-1.84-1.4-2.76-.82-1.51-1.65-2.88-2.55-4.24a8.89,8.89,0,0,0-2.13-3c-9.48-12.63-24.8-23.14-39.05-19.68a13.27,13.27,0,0,0-3.68.72c.94-.45,1.9-.91,2.85-1.34-.11-.58-12.69,6.21-14.73,6.76.51,1.49-.56,2.75-.28,0-1.23,1.41-3.61,5.5-6.19,10.59a54.78,54.78,0,0,0-6.54,11.93c-.31.79-.59,1.59-.85,2.4-.28.14-.29.32-.16.49-.33,1-.62,2.08-.87,3.14-.4-.26-.57-.19-.13.63-.2.9-.35,1.82-.47,2.73-2.09,6.76-2.37,11.6,1.39,10.72a4.75,4.75,0,0,0-1.77,1.95c1.51-.59,2.06-.62,1.7-.1l.66-.66a1.57,1.57,0,0,1,.34.42c-.09.55-.21.41-.34-.42.11.8.16,1.54.19,2.21-1.22.49-1.53.94-.43,1.28l.52.13a3.12,3.12,0,0,0,1.29,2.67c-.36-.24,4.64-.63,9.74-.88a99.09,99.09,0,0,0,10.34,0c1.74-.09,3.4-.17,5.07-.27-3,2.18-.5,1.32,2.23-.12,2.89-.16,5.78-.3,8.66-.28.44.34.7.59.56.66a8.67,8.67,0,0,0,1.08-.61c2.71.12,8.22.4,14.19.41a.94.94,0,0,0-.4.86c0,1.28,1-.34,1.08-.86l2.37,0c-1.29.88.14.36.47,0,1.93,0,3.85-.1,5.69-.22a5.18,5.18,0,0,0,.19,1.2c.21-.1.3-.64.35-1.24,1.11-.08,2.19-.18,3.23-.3l.49-.06c.18.42.8.33,1.87-.26,4.67-.78,7.78-2.16,7.13-4.53a13.28,13.28,0,0,0,1.28-4.93C187.93,215.5,187.3,205.16,185.57,205.64ZM116.05,228.1c.71.1,1.42.22,2.13.29C117.32,228.65,116.26,228.8,116.05,228.1Zm51.58-30,.67-.12a10.3,10.3,0,0,0-1.59-1.36c1.88,2.2-4,1-5.4,1,0-.06,1.54-.39,2.2-.7h-3.06a5.63,5.63,0,0,1-1,.25,1.63,1.63,0,0,0,.1-.25H159a1,1,0,0,0-.17.14c0,.13,0,.16,0,.2l-.34,0A1.6,1.6,0,0,0,158,197a1.32,1.32,0,0,0-.27,0,1.14,1.14,0,0,0,0,.44c-.54.05-1.1.09-1.7.12a2.16,2.16,0,0,0-1.17.05c-2.38.08-4.86,0-6.21-.07a31.63,31.63,0,0,0,3.19.65l-6.42-.3c.38-.1-.87-.4-1.93-.08-3.87-.16-7.8-.25-8.66,0a1.62,1.62,0,0,1,1.66.58c-.13.71-8.36-.62-8.25-.84a15.37,15.37,0,0,1,4.64-.2,1.1,1.1,0,0,0-.57-.36,5.91,5.91,0,0,0-.85,0c.22,0,0,0-.5,0-1.68,0-3.36,0-5-.11.25-.43.52-.79.78-1.19a6.91,6.91,0,0,0-1.18.66c-.19.06.59-1.94,1.84-4.26,0,0,.3-.37.26-.47,2-3.64,5.07-7.78,7.27-6,1-5,14.64-3.41,17.44-2.46-3.28,0,8.35,5.78,8,6.15-.69-.46-1.38-.93-2.06-1.41,3.68,2.3,7.11,7.22,10.33,10.25Z" transform="translate(-8.53 -5.85)"/></svg>