<svg id="Layer_1" data-name="Layer 1" xmlns="http://www.w3.org/2000/svg" viewBox="0 0 258.74 265.39"><path d="M204.48,142.17a3.33,3.33,0,0,0,.48.56c1.33,4.74,3.15,7.78,5.38,5.84-2.53,3.18,1.07-.64,0,1.79.31-.7.54-1.23.72-1.7a6.93,6.93,0,0,0,6.15.94c0,.91.07,1.9.17,3.08,0-.09.6-2.08.92-3.5a10.78,10.78,0,0,0,1-.54,10.22,10.22,0,0,0-.29,2.21c.51.38,1.77-2,2.66-4.18a11.13,11.13,0,0,0,3-6.73,33.13,33.13,0,0,0-.18-5.36.21.21,0,0,0,.2.2c1.59.3.59-1.47.18-1a1.94,1.94,0,0,0-.38.81c-.11-.93-.25-1.87-.41-2.8.45-2.14.66-3.68.24-3.66a15,15,0,0,1-.52,2.2c-.15-.65-.28-1.29-.44-1.94.12-2.4,0-5.33-1.33-7.15,0,.06-.08.1-.5.26l-.34-.11c0-.13-.09-.27-.14-.4a2.15,2.15,0,0,1,.8,0,4.15,4.15,0,0,0-1.14-.94c-.35-.91-.7-1.83-1.06-2.72a2.48,2.48,0,0,1,.71.3,7.17,7.17,0,0,1-.25-.74c-.91-1.5-2.07-3.17-1.91-3,2.6.62-6.11-5.71-10.09-1.18.26-.38.5-.8.79-1.17-.11-.15-.44.39-.88,1.26a6.15,6.15,0,0,0-.78,1.21c.2-.36.47-.69.7-1-1.54,3.1-4.38,9.87-5.12,7.08a31.16,31.16,0,0,0-.15,7.45,7.79,7.79,0,0,0-.24.82A19.85,19.85,0,0,0,204.48,142.17Zm2.51,4.17.24.47C207,146.77,205.84,146.47,207,146.34Zm8.19-4.22a6.75,6.75,0,0,1-.41-1.27,6.16,6.16,0,0,0,1.25,1.47C215.79,142.71,215.51,142.73,215.18,142.12Zm6.71-20.44c.9.38.8.7-.31.88a.61.61,0,0,1-.12-.22A2,2,0,0,1,221.89,121.68Zm-9.74-9.54c-.22.07-.41-.12-.58-.57C211.74,111.52,212.5,112.1,212.15,112.14Zm1.25,1.79a13.71,13.71,0,0,0-3.81,2.88,26.84,26.84,0,0,0,1-3.46C211.15,112.93,212.22,113.25,213.4,113.93Zm-4.48,0c.37-1.58-.36,3,0,0Zm-1.82,5.33a.63.63,0,0,1,.35,0l-.19.26A.46.46,0,0,1,207.1,119.23Z" transform="translate(-13.66 -10.6)"/><path d="M85.5,127.07a12.26,12.26,0,0,1-1.57,4c-.24-.08,2-7.42-.43-10.89,0,0-.06.09-.15.14.13,0,.13,0-.35.16-1.71-.46,0-.61.43-.41A3.94,3.94,0,0,0,82,118.91a5.33,5.33,0,0,0-.32.74,28,28,0,0,0-1.23-3.48,3.74,3.74,0,0,1,1.59.55c-.12-.37-.26-1.11-.15-.73a.91.91,0,0,0,.18.25c-.79-1.52-2-3.36-1.87-3.26,2.48.63-5.78-5.59-9.66-.44.18-.3.36-.63.55-.93-.1-.11-.36.38-.72,1.16a7.39,7.39,0,0,0-.65,1.19c.16-.3.33-.58.51-.87-1.36,3-3.87,9.47-4.8,6.94-.14.64-.48,2.86-.75,5.48-.11-.14-.26-.24-.38-.16s.06.68.31.83c-.44,4.62-.59,10.17,1,10.82-2.39.94-1,3.95,1.25,6.74.67,2.46,2,4.09,4.28,4.25,1.39,1.08,2.44,1.57,2.44.88a10.06,10.06,0,0,0-.06-1.18,12.91,12.91,0,0,0,1.86-.71c-.16.71-.33,1.49-.49,2.37-9.24,10.68.92-.42,2.68-3.56l.24-.15.54-.32c.13-.09.24-.2.37-.29A11.63,11.63,0,0,0,77,148.21c.67,1,5.87-5.85,5.23-6.27-.08,0-.12.05-.19.05a3.43,3.43,0,0,0,.79-1.44,6.65,6.65,0,0,0,.28,1.83,2.44,2.44,0,0,0-.18-2.17,16.21,16.21,0,0,0,.41-2.26c.12.11.19-.95.12-1.27,0-.54.06-1.1.07-1.68l.16-.4c0-.86.24-1.22.41-1.14C85.35,130.05,86.26,127.07,85.5,127.07Zm-1.23-2.82c-.65-3,.75-.47,0,0Zm-.85-3.54c.88.4.76.68-.35.85C82.63,121.62,83.3,120.78,83.42,120.71Zm-.61,4.1a2.17,2.17,0,0,1,0-.25C83.06,124.5,83,124.83,82.81,124.81Zm-16.29,10c0,.12,0,.23,0,.34C66.12,135.21,65.91,135.12,66.52,134.8Zm4.93-.15a9.24,9.24,0,0,1,.43-3.94C71.64,132.31,71.51,133.71,71.45,134.65Zm-4.8-1.1a.56.56,0,0,1-.27-.17.35.35,0,0,1,.31-.11A2.7,2.7,0,0,1,66.65,133.55ZM66.51,129l.4.36C67.16,129.82,66.33,129.29,66.51,129Zm12-15.72-.18-.15C78.59,112.9,78.86,112.85,78.56,113.26Zm-4.23-1.51c-.19.13-.4,0-.64-.42C73.83,111.24,74.64,111.61,74.33,111.75Zm.28,1.16a8.4,8.4,0,0,0-2,1.93A6.42,6.42,0,0,0,73,113.2,1.91,1.91,0,0,1,74.61,112.91Zm-7.5,13.81c.48.29.36.37-.33.26Zm.1,1.52c-.32.25-.68.2-1.09-.2A.87.87,0,0,1,67.21,128.24ZM66,130.39c.3.2-.23.33,0,0Zm-.38,7.76c1.76.56-1.22,1.19,0,0Zm.47,1.52.21-.07a2.45,2.45,0,0,0,0,.27C66.18,139.84,66.1,139.78,66.1,139.67Zm14.72,2.91c.08-.13.14-.28.21-.41a.62.62,0,0,0,.23,0,1.5,1.5,0,0,0-.53.81C80.75,142.9,80.79,142.74,80.82,142.58Z" transform="translate(-13.66 -10.6)"/><path d="M181.5,201.93a1,1,0,0,0,.42.4c2.84,2.42,5.68.39,4.31-8.16-3.13-19.5-21.66-30.09-40.49-27.22a46.38,46.38,0,0,0-25.67,12.93,30.63,30.63,0,0,0-8.32,14.59,22.45,22.45,0,0,0-1.8,3.35,2.5,2.5,0,0,1,.64.38l-.21.63a4.3,4.3,0,0,1-.52-.79c-1.14,2.89-.71,4.92,2.44,5.21a4.69,4.69,0,0,0-2.51.73c2.23.09,2.44.34.61.75,3.76-1.07,5.23.33,7-1.81a28.76,28.76,0,0,1,1.23-5.19,56.53,56.53,0,0,1,8.07-11.31c2-.65,4.51-1.2,4.58-2.06,0-.38-1.53-.18-2.15-.37.57-.53,1.15-1.05,1.75-1.55.24,1,3.37.18,6-.75-7,7.58,10.15-5.47,7.09-5.42,4.36-.07,7,3.73,13,1.69,4.92.39-1.2-1.62-1.11-1.4,1.29-1.61,2.79-1,3.54-1.28.37.09.73.14,1.1.24a5.42,5.42,0,0,0,.92,5.13c2.28,2.26,5.8.17,6.52,1.25.4.45,5.4,4.87,8.09,7,.18.39.35.79.52,1.2a2.83,2.83,0,0,0,.4,1c.08.23.12.49.2.73a12.19,12.19,0,0,0-2,1.18c.28.28,1.44-.06,2.25-.3.15.51.31,1,.43,1.51a22,22,0,0,0,1,3.25c-1,1.13,1.78,7,2.17,7.77v-3.86A6.14,6.14,0,0,0,181.5,201.93ZM113,201.87c.07.22.16.42.24.62l-.37,0A3.17,3.17,0,0,1,113,201.87Zm22.74-21.6c-.62.27-.27-1.76,0,0Zm.8-.88a.78.78,0,0,1-.21-.77C136.78,178.94,136.84,179.23,136.56,179.39Zm9.59-4c-.16,0-.28-.14-.4-.43l.33-.08C146.23,175.16,146.32,175.41,146.15,175.41Zm5.78,1.2s-.06-2.85,0,0Zm2.61.14c.28-.91.49-.89.6,0Zm7.29-.77.32.11c-.08.21-.27.8-.14.66a5,5,0,0,0,.14-.66,2.74,2.74,0,0,1-.14.66C160.67,178.27,161.35,176.63,161.83,176Zm.78.27c.27.09.54.17.81.28a9.41,9.41,0,0,1-.34.9C162.79,178.13,162.51,176.53,162.61,176.25Zm1.25,3.49a.76.76,0,0,1,.29.2C161.34,179.3,162.93,179.23,163.86,179.74Zm.65-2.7q.53.26,1.05.54A2.29,2.29,0,0,1,164.51,177Zm1.14,3.17c.08,0,.07-.24,0-.1C165.92,179.11,166.43,180.37,165.65,180.21Zm13.89,20a1.29,1.29,0,0,1,.27-.58c.17.31.35.62.52.89C180.14,201.88,179.88,202.27,179.54,200.18Z" transform="translate(-13.66 -10.6)"/><path d="M168.39,184.46c-.79,1.16,1.58.24,1.62-.08A1,1,0,0,0,168.39,184.46Z" transform="translate(-13.66 -10.6)"/><path d="M162.81,183.36c-.74,1.71,2.42-.46,2.37-.42S163.26,182.33,162.81,183.36Z" transform="translate(-13.66 -10.6)"/><path d="M152.83,180c-.22,3.36,2.92-.91,2.88-.83C155.36,179.23,152.86,178.83,152.83,180Z" transform="translate(-13.66 -10.6)"/><path d="M267.65,110c-6.79-26.13-20.52-50.63-40.16-69.27A113.88,113.88,0,0,0,190.74,16.8a90,90,0,0,0-21.52-5.47A84.6,84.6,0,0,0,154,10.8q-4.95,2.49,0,5.13c.4,0,.78.11,1.17.16,4,1.39,25.61,12.6,27.26,8.34,7.77.93,8.84,6.2,18.95,6.61.24,0,.35-.05.4-.13q5.12,2.83,9.85,6.12c-4.71,3.1,4.23,5.51,9.5,7.35,1,.88,2,1.78,3,2.69a10,10,0,0,1-2.53,1.3c1.49,3.06,8.9,6.75,13.39,10.21,1.19,1.45,2.34,2.92,3.47,4.42a2,2,0,0,1-.13.83c-1.45,3.72,4.13,8,6.23,9.59,1.31-.31,6,25.16,12.75,25.89.53,1.56,1,3.15,1.49,4.74-.51,2.44-1.65,4.88-.77,8.64,2.05-.86,2.35-.25,3.11.28.08.31.15.63.22,1-4.06,1.7,0,7.61-.8,11.55.87-.74,1.74-1.48,2.6-2.23.21,1.33.39,2.68.57,4a5.93,5.93,0,0,0-3.16-.87c.4,3.16.69,6.33.85,9.52,1.36-.82,2.43-.86,3.23-.18,0,.47.06.94.09,1.41a5.06,5.06,0,0,1-3.22.14q-3.44,12.32,2.89,7.78a2,2,0,0,0,.7,0c0,1.39,0,2.77,0,4.15a24.29,24.29,0,0,0-3.06-1.58c.07,2.93-2,11.33,2.68,10,0,.11,0,.23,0,.34-2.66,3.12-2.18,5.49-.81,7.33q-.51,3.49-1.22,6.93c-2.74.88-5,2.39-2.64,6.48a4,4,0,0,1,1.46-1.21c-.86,3.41-1.85,6.77-3,10-2.43,3-4.1,6.78-6.32,11.22l1.42.71c-.25.52-.49,1-.74,1.55-1.69,3.38-3.5,6.68-5.48,9.87-.4.25-.79.5-1.23.72a5.67,5.67,0,0,0,.69.15c-1,1.63-2.1,3.22-3.21,4.79a8.2,8.2,0,0,0-1-1.62c-3.55,5.54-8.17,12.78-13.48,16.76a6.59,6.59,0,0,1,.35,1.4c-1.4,1.38-2.85,2.72-4.33,4a10.75,10.75,0,0,0,.9-3,119.87,119.87,0,0,1-26.52,17.65,11.92,11.92,0,0,0,1.43,2.12c-1,.56-2.09,1.12-3.14,1.65a11.8,11.8,0,0,0,.1-1.46,3.6,3.6,0,0,1-.55,1.68q-2.33,1.16-4.71,2.23c-4.19.64-9.65.56-11.69,4.59-1.24.42-2.47.85-3.73,1.23-.17-.75-.35-1.51-.58-2.26-2.46.67-8.71,2.48-9.33,2.85a4.61,4.61,0,0,0,1.69,1.66l-2.52.62c-2.76-1.08-9.61-.7-11.12-.57,1.65.34,2.15,1.13,1.62,2.33a116.38,116.38,0,0,1-16,1.31c-.58-1.88-1.52-2.75-6.73-2.84a5,5,0,0,1,1,2.76,108.07,108.07,0,0,1-13.2-1.36c-.45-2.35-16-5.82-17.71-4.44-1-.35-2.06-.71-3.08-1.09a5.78,5.78,0,0,0-3.24-2.57c-3.42-1.44-3.35-.48-4.92-.88-1.19-.57-2.38-1.15-3.55-1.76-2.46-1.58-10.15-6.54-12.26-7.27l-.74-.52c-1.35-4.53-6.37-6.85-11.59-9.16a127.67,127.67,0,0,1-20.42-23.42c.77-.16,1.47.35,1.83,2.15,3.1-1.58.82-2.4-2.25-2.79-1.06-1.58-2.08-3.17-3.08-4.8A9.4,9.4,0,0,1,43.79,213a13.88,13.88,0,0,0-4.23-4.1,139.16,139.16,0,0,1-18.34-62.14c1.12-1,1.67-2.12-.1-2.95a110.37,110.37,0,0,1,.41-15.23c.44-4.08.95-8,1.32-10.46A109.25,109.25,0,0,1,49.32,61.53a75.41,75.41,0,0,1,11.06-10,8.43,8.43,0,0,1-1-.39c.38-.35.76-.71,1.15-1,1.33.08,3-.92,6.38-3.48,5.6-4.21,11.92-5.37,10.38-8.85.66-.41,1.31-.84,2-1.24l.42.84c4-2.48,7.58-4.05,9.79-6.24,3.38-1.62,6.81-3.16,10.33-4.54,2.47-1,5-1.87,7.46-2.73,11.38-3,23-3.31,33.68-7.94,1.51-.71,1-1.4-.59-2.06,2.59-1,4-1.82,1.84-1.85-2.75,0-5.45,0-8.12.15A88.33,88.33,0,0,0,123,10.61a26.42,26.42,0,0,0-9.83,2.21l4.35,0a8.63,8.63,0,0,1-2.76,1.59l-.52.1a1.85,1.85,0,0,1-1.71-.6,2.89,2.89,0,0,1-.39-.61A32.27,32.27,0,0,0,108,16a117.4,117.4,0,0,0-15.44,5.13A1.63,1.63,0,0,1,92.62,20c-3.11,1.36-18.59,9.3-17.94,9.8.76-.26,1.49-.56,2.24-.85l-.89.53C67.78,33.4,54.59,40.27,53.51,44.94c.51.38,1,.75,1.41,1.1-.24.23-.48.46-.71.7a13,13,0,0,1-.79-1.48C47.06,56.94,30.8,69,23.57,85.81c-2.26,5.27-13,32.59-9,37.19-.2-.23.55-1.76,1.33-3.56-.41,5.91-.54,15.32-.51,24.26,0,1,0,2,0,3,.08,9.87.34,18.56.65,20.39a6.83,6.83,0,0,0,1-.77,135.15,135.15,0,0,0,13.41,41.31c2,9.05,13.68,22.16,16.9,25.89,5,5.82,8.84,10.15,12.52,17.39,1.71,3.42,8.89,3.06,11.22,4.92-2.32-1.85-3.81-3-4.77-4a2.55,2.55,0,0,0,2.06.42c1.06.79,2.13,1.56,3.22,2.31,2.89,4.26,13.26,8.74,15.11,9.9,2.8,1.77,4.59,2.05,5.91,1.69A119.23,119.23,0,0,0,109.45,272c.93.86,1.83,1.23,2.53.62,34.36,8.19,71.75,1.41,102.73-18.31C263.65,223.13,282,165.16,267.65,110ZM165.27,17.76l.27,0Zm84,65.71c.39-.53.71-.94,1-1.3.2.39.4.79.59,1.19A6.61,6.61,0,0,0,249.28,83.47ZM238,224c-.21.25-.4.5-.62.75h-.19C237.45,224.47,237.72,224.22,238,224ZM207.2,250.2l.33,0-.19.12A1.07,1.07,0,0,0,207.2,250.2Zm-141.53.91a4,4,0,0,1-.62-1.38A11.41,11.41,0,0,0,65.67,251.11Z" transform="translate(-13.66 -10.6)"/></svg>