<?xml version="1.0" encoding="utf-8"?>
<!-- Generator: Adobe Illustrator 25.2.1, SVG Export Plug-In . SVG Version: 6.00 Build 0)  -->
<svg version="1.1" id="Layer_1" xmlns="http://www.w3.org/2000/svg" xmlns:xlink="http://www.w3.org/1999/xlink" x="0px" y="0px"
	 viewBox="0 0 288 288" style="enable-background:new 0 0 288 288;" xml:space="preserve">
<g>
	<g>
		<path d="M284.22,44.61H3.78C1.69,44.61,0,42.92,0,40.83V3.78C0,1.69,1.69,0,3.78,0h280.44c2.09,0,3.78,1.69,3.78,3.78v37.05
			C288,42.92,286.31,44.61,284.22,44.61z"/>
	</g>
	<g>
		<path d="M284.22,166.21H3.78c-2.09,0-3.78-1.69-3.78-3.78v-37.05c0-2.09,1.69-3.78,3.78-3.78h280.44c2.09,0,3.78,1.69,3.78,3.78
			v37.05C288,164.52,286.31,166.21,284.22,166.21z"/>
	</g>
	<g>
		<path d="M284.22,288H3.78C1.69,288,0,286.31,0,284.22v-37.05c0-2.09,1.69-3.78,3.78-3.78h280.44c2.09,0,3.78,1.69,3.78,3.78v37.05
			C288,286.31,286.31,288,284.22,288z"/>
	</g>
</g>
</svg>
