<svg id="Layer_1" data-name="Layer 1" xmlns="http://www.w3.org/2000/svg" viewBox="0 0 220.25 64.65"><defs><style>.cls-1{fill:none;}</style></defs><path class="cls-1" d="M245.51,140.39A91.71,91.71,0,0,1,217,110.75a5.07,5.07,0,0,0-4.33-2.44H75.26a5.05,5.05,0,0,0-4.35,2.47,90.18,90.18,0,0,1-27.66,29.64,5.17,5.17,0,0,1,1.34,3.44,5.08,5.08,0,0,1-.61,2.39c9.22,4.27,17.94,11.76,26.57,22.81a5.08,5.08,0,0,0,4,1.91h0l138.86-.24a5,5,0,0,0,3.94-1.88c8.25-10.43,17.42-18,27.31-22.47a5.11,5.11,0,0,1,.87-6Z" transform="translate(-34.19 -107.31)"/><path class="cls-1" d="M43.59,143.86A4.19,4.19,0,0,0,42.42,141a4.39,4.39,0,0,0-.82-.66,4.2,4.2,0,1,0,.89,6.35,4.45,4.45,0,0,0,.59-.83A4.21,4.21,0,0,0,43.59,143.86Z" transform="translate(-34.19 -107.31)"/><path class="cls-1" d="M249.24,139.8a4.14,4.14,0,0,0-2,.52,3.88,3.88,0,0,0-.88.62A4.18,4.18,0,0,0,245,144a4.12,4.12,0,0,0,.51,2,4.39,4.39,0,0,0,.59.84,4.19,4.19,0,1,0,3.1-7Z" transform="translate(-34.19 -107.31)"/><path d="M249.24,138.8a5.16,5.16,0,0,0-2.93.91,90.63,90.63,0,0,1-28.46-29.48,6.08,6.08,0,0,0-5.19-2.92H75.26a6.08,6.08,0,0,0-5.22,3A89,89,0,0,1,42.5,139.73a5.12,5.12,0,0,0-3.11-1.06,5.2,5.2,0,1,0,4,8.42c9.12,4.2,17.76,11.61,26.33,22.58a6.06,6.06,0,0,0,4.76,2.3h0l138.86-.24a6,6,0,0,0,4.72-2.26c8.19-10.35,17.29-17.81,27.09-22.24a5.19,5.19,0,1,0,4-8.43ZM39.39,148.06a4.2,4.2,0,1,1,2.21-7.75,4.39,4.39,0,0,1,.82.66,4.12,4.12,0,0,1,.66,4.86,4.45,4.45,0,0,1-.59.83A4.13,4.13,0,0,1,39.39,148.06Zm177.94,20.79a5,5,0,0,1-3.94,1.88L74.53,171h0a5.08,5.08,0,0,1-4-1.91C61.92,158,53.2,150.52,44,146.25a5.08,5.08,0,0,0,.61-2.39,5.17,5.17,0,0,0-1.34-3.44,90.18,90.18,0,0,0,27.66-29.64,5.05,5.05,0,0,1,4.35-2.47h137.4a5.07,5.07,0,0,1,4.33,2.44,91.71,91.71,0,0,0,28.52,29.64,5.11,5.11,0,0,0-.87,6C234.75,150.89,225.58,158.42,217.33,168.85Zm31.91-20.65a4.17,4.17,0,0,1-3.1-1.39,4.39,4.39,0,0,1-.59-.84,4.12,4.12,0,0,1-.51-2,4.18,4.18,0,0,1,1.34-3.06,3.88,3.88,0,0,1,.88-.62,4.14,4.14,0,0,1,2-.52,4.2,4.2,0,0,1,0,8.4Z" transform="translate(-34.19 -107.31)"/></svg>