<svg id="Layer_1" data-name="Layer 1" xmlns="http://www.w3.org/2000/svg" viewBox="0 0 272.74 277.1"><path d="M188.47,173.56a2.27,2.27,0,0,0-1.62.48,3,3,0,0,1,.15-1.41c-.61,1-1.29,2-2,3a50.31,50.31,0,0,0-4.47,5.47c-6.45,6.74-14.63,11.53-23.22,15.59a33.87,33.87,0,0,0-9,5.64c-4.43-1-19.87-9.67-23.06-12-2.54-1.85-16.73-16-22.3-17a4.75,4.75,0,0,0,.77-1.6c-1.13.92-1.62,1.15-1.57.83-.17.29-.31.58-.47.87a1.51,1.51,0,0,0-.93,1.17c0,.27-.08.53-.12.79l-.1.2c0-.9-.45-1.25-1.32-1,.21-.14-.19,4.35-.3,3.66a23.64,23.64,0,0,0,1.53,2.53c.78,7,5.57,12.72,12,16.75,3.14,3.9,5.85,6.77,6.81,6.4.71-.22-4.28-5.32,2-1.3-2.68.4,2.87,3.25,7.08,5.19,11.14-.24,14.29,1.93,25.54,1.11l.27,0c6.06-.87-1.92-1.33-1.75-1.1a2.73,2.73,0,0,1,.86-.76c1.25,0,2.64,0,4.31-.15a4.78,4.78,0,0,0,3.47,2.38c4.45.38,6.51-4.4,7.88-4.52a4,4,0,0,0,1-.51,4.38,4.38,0,0,0,.54-.22,22.72,22.72,0,0,1,1.88-1.57,40.71,40.71,0,0,0,3.64-2.18c.15,0,.45-.08.81-.56a41.05,41.05,0,0,0,7.05-6.18c.54.18.93.4.83.65a1.12,1.12,0,0,0-.35-1.2,13.35,13.35,0,0,0,2.72-6c1.09,0,1.85-3.11,2.3-5.81C191.51,177.45,192,174.35,188.47,173.56Zm-61.33,32.25c-.83-.26,1.11-1.49,0,0Zm1.45-.06a.7.7,0,0,1,.46-.83C129.17,205.57,129,205.85,128.59,205.75Zm12.38.75c-.31,0-.44-.39-.4-1.21C140.72,205.3,141.37,206.6,141,206.5Zm-1-2.12a30.29,30.29,0,0,0,7.82-1.4,4.24,4.24,0,0,0-.55.86,22.41,22.41,0,0,0-4.22,1.93A13.22,13.22,0,0,1,139.94,204.38Zm7.79,3.87h0C147.66,208.08,147.56,205.52,147.73,208.25Zm3.21-.12c.2-.95.43-1,.75,0Zm12.82-1.34c-2.08,1.25-3.52.62,0,0Zm1.69-1c-.17-.25-.19-.36-.18-.44l.29-.1C165.74,205.32,165.87,205.54,165.45,205.78Zm23-22.39a2.31,2.31,0,0,1-.8.51c.25-.35.52-.7.75-1.05C188.34,183.29,188.35,183.53,188.42,183.39Z" transform="translate(-7.63 -4.39)"/><path d="M242,46c-13.4-13-29.71-22.59-46.94-29.53-15.47-6.24-34.55-7.56-48.25-12q5.29,1.71,10.54,3.61c-3.57-1-6.17-1.6-6.28-1.31s.08.36.3.55h-.59a9.48,9.48,0,0,0-3.85-.8,7,7,0,0,1,1.75.88l-1.82.07a120.86,120.86,0,0,0-14.09-2.93c-.34,0-16.44-.71-14.68,1-4.31.61-7.93,4.22-11.84,6.29-1.82.36-3.62.76-5.41,1.18-.09-.74-2.3-.9-1.16-2.83-3.4.95-21.07,7.38-20.37,8A64.79,64.79,0,0,0,86.22,16C79.62,18.67,57.48,25.88,55.61,33l1,.75-.66.54c-.15-.32-.33-.6-.46-1a17,17,0,0,1-2.27,3.25c-1,.89-2,1.79-3,2.73-3.7,2.74-7.62,4.36-10.14,11a142.89,142.89,0,0,0-25.3,47.06A92.57,92.57,0,0,0,11.16,111a144.59,144.59,0,0,0-3,22.24c-1.34,3.23,0,25,1.14,28.58A142.79,142.79,0,0,0,24,206c1.94,6.81,8.73,15.52,13.79,21.29a143.13,143.13,0,0,0,12.86,14.32,66.85,66.85,0,0,1,5.91,8.77c1.48,2.61,6,3.11,9.21,4a138.46,138.46,0,0,0,82.07,27.08c76.08,0,133.94-64.12,132.54-139C279.69,107.4,267.62,70.73,242,46Zm11.61,30.27c.08.14.18.27.27.41-.19,0-.36,0-.55.07C253.47,76.53,253.55,76.39,253.65,76.23ZM151.41,7.31a4.61,4.61,0,0,0,.66.46l-1.16-.42ZM126.84,6.17c-2.7,1.66-4.47,1.82-5.34.51a3.08,3.08,0,0,1-.5-1.19ZM109.46,15c-.93.36,0,1.94-.65,1.44,0-.29-.33-.45-.13-.12-.17-.16-.4-.4-.76-.8ZM89.54,16.17l-1.75.61c-.34-.25-.68-.51-1-.78ZM272.7,145a24.28,24.28,0,0,0-2.18-1.23c-.14,6.05,0,10.91,1.12,15.16-.48,3.79-1.1,7.53-1.89,11.22-2.73.88-4.92,2.42-2.81,6.77a4.33,4.33,0,0,1,1.54-1.28c-.94,3.69-2.06,7.3-3.3,10.85-2.54,3.26-4.26,7.33-6.7,12.11l1.49.7c-.27.57-.55,1.12-.83,1.68-1.88,3.86-3.88,7.51-6,11-.28.19-.54.38-.84.56l.45.06q-1.54,2.51-3.19,4.93a8.88,8.88,0,0,0-.77-1.22c-3.53,5.32-6.69,11.23-10.95,16-1.84,2.06-3.8,4-5.78,5.9l.15-.32c-8.82,7.46-17.08,14.22-27.27,19.81.07.11.15.2.21.31a120.94,120.94,0,0,1-24.46,10.07c0-.16-.06-.32-.11-.48-2.77.67-9.17,2.13-10,2.58.07.12.16.19.23.3q-3.17.63-6.39,1.09c-2.83-.22-5.73-.2-6.62-.17a2.77,2.77,0,0,1,1.53.77,121.63,121.63,0,0,1-17.85.43c-.82-.88-2.41-1.38-6.16-1.69a3.08,3.08,0,0,1,.66,1.32c-2.09-.19-4.19-.43-6.3-.74-3.12-.45-6.19-1.06-9.22-1.73-3.8-2.05-12.35-4.52-15.66-4.48-1.7-.61-3.37-1.27-5-1.94a7.63,7.63,0,0,0-2.78-1.94,9.51,9.51,0,0,0-4.16-1.1Q89.84,259,87,257.42c-3.39-2.88-7.51-8-11.49-6.94-2.11-1.43-4.19-2.9-6.21-4.44-2.8-2.57-5.67-5.41-6.44-6.14a13.62,13.62,0,0,0-4.22-3,134.93,134.93,0,0,1-17.08-19.61c1.17-.94.28-1.58-1.4-2-.95-1.39-1.88-2.79-2.78-4.22l.19.11c-.25-.36-.5-.7-.76-1a131.55,131.55,0,0,1-15.09-34.36c-.81-9.39-1.64-19.07-4.25-24.11a125.75,125.75,0,0,1,1.6-32c.52-2.89,1.15-5.71,1.82-8.49a.42.42,0,0,1,.25,0c.53-2.35,1-4.56,1.54-6.66C31.33,72,52.14,46.9,78,30.18a8.08,8.08,0,0,0,2.84-1.82c2.53-1.55,5.13-3,7.76-4.39A34,34,0,0,0,94,21.26q2.64-1.25,5.33-2.39a2.46,2.46,0,0,1-.14.53l4-1.23c-.17-.22-.34-.44-.5-.67.55-.21,1.1-.43,1.66-.63a6.56,6.56,0,0,1-.06,1c15.81-4.64,32.25-1.49,47.25-7.06,2.24-.89-.43-2.11-4.37-3.24.56,0,1.13,0,1.69-.08C154.88,11,174,23.25,176.1,19c7.86,1.88,10.33,8.13,21.48,7.29,3.68,2.08,7.3,4.25,10.82,6.53-.14,1.37,2,2.4,4.81,3.23a161.22,161.22,0,0,1,28.17,24.41,14.61,14.61,0,0,0,2.52,2.85c2.52,2.94,4.93,6,7.16,9.11,2.84,8,6.73,21,11.87,20.84.68,1.55,1.32,3.12,1.94,4.71-.2,2.77-1.16,5.63,0,9.49,1.08-2.63,2.07-1.75,3.07-.73.17.59.3,1.19.47,1.77-4,2.06.51,8.21.14,12.25l2.19-2.26c.23,1.23.42,2.48.61,3.73a6,6,0,0,0-2.68-.53c.52,3.29,1,6.58,1.31,9.89a3.3,3.3,0,0,1,2.38-.67c.06.72.15,1.42.19,2.15a4.79,4.79,0,0,1-2.46-.05c-2.39,8.36-1.47,11.09,2.71,8.25C272.78,142.47,272.73,143.71,272.7,145Z" transform="translate(-7.63 -4.39)"/><path d="M89.73,133.91c2.06-2.49,3.64-4.68,2.54-4.71a8.6,8.6,0,0,1-2.64,3c-.5-.1,3.66-5.48.24-8.17,0,0-.08.07-.25.11.19,0,.2,0-.52.11-2.51-.42.13-.46.7-.29a6.09,6.09,0,0,0-2-.94,3.42,3.42,0,0,0-.47.46,10.46,10.46,0,0,0-1.48-2.55,8.58,8.58,0,0,1,2.18.45c-.16-.28-.3-.84-.16-.55a.88.88,0,0,0,.22.19c-1-1.16-2.59-2.59-2.48-2.51,3.6.57-8-4.4-14.12-.7.29-.23.57-.46.87-.68-.13-.09-.54.26-1.12.81a6.62,6.62,0,0,0-1.09.89l.85-.64c-2.22,2.21-6.4,6.93-7.6,5a33.18,33.18,0,0,0-1.52,4.07.68.68,0,0,0-.55-.14c-.22.06.05.52.41.63a22.53,22.53,0,0,0-.89,4.47,6.12,6.12,0,0,0-.35,4.71c-.55,1.43,2.58,3.87,5.9,5.75.19,0,.7.31.7.31,2.94,1.68,6,2.8,6,2.06a2.83,2.83,0,0,0-.36-2,28,28,0,0,0,3.55,0A27.23,27.23,0,0,0,75,145.43c-14.95,7.93,2.93-1.06,4.51-2.83,0,.05,0,.1.07.2.55-.31.7-.42.45-.32a.89.89,0,0,0-.45,0l.27-.07c.59-.15,1.15-.3,1.69-.49a11.21,11.21,0,0,0-3.34,2.7c.9.78,9.07-4.13,8.15-4.47a2.54,2.54,0,0,0-2.31.74,1.57,1.57,0,0,1,.12-.21,9,9,0,0,0,.77-.57c1.3-.23,2.35-1.82,3-4.07L89,134.75C89.09,134.11,89.49,133.86,89.73,133.91Zm1-6.87.2-.06ZM76.43,133l.25.35c-.4,1.29-.7,2.48-1,3.38A8.75,8.75,0,0,1,76.43,133Zm-5.1-1.24a19.54,19.54,0,0,1,.92-2c.22-.34.45-.66.71-1l.14.19a21.08,21.08,0,0,0-1.95,5A4.83,4.83,0,0,1,71.33,131.73Zm14.54-2.26a2.14,2.14,0,0,1,0,.58c0-.11-.08-.21-.11-.32S85.84,129.56,85.87,129.47ZM83,118.7c-.1,0-.18-.09-.28-.12C83,118.35,83.79,118.26,83,118.7Zm-5.94-1.39c-.29.1-.59,0-.92-.34C76.37,116.91,77.51,117.22,77.06,117.31Zm1.24,1A16.15,16.15,0,0,0,74.06,120c.62-.93,1.11-1.68,1-1.63A6.44,6.44,0,0,1,78.3,118.36Zm-6.68,24.86a5.64,5.64,0,0,1-.6-.33l.89.1A2.09,2.09,0,0,1,71.62,143.22Zm18.09-18.86c1.25.34,1.06.55-.59.62C88.46,125,89.52,124.41,89.71,124.36Z" transform="translate(-7.63 -4.39)"/><path d="M229.15,133.8s-.5.37-.5.59c-.14-.68-.32-1.37-.53-2,.59-1.57.86-2.69.31-2.67a6.75,6.75,0,0,1-.68,1.6c-.18-.47-.37-.94-.58-1.41a6.4,6.4,0,0,0-1-4.53c-.08.11-.47.2-1.18.26a.34.34,0,0,1-.15-.15,1.73,1.73,0,0,1,.55-.49,3.64,3.64,0,0,1,.63.2,3.88,3.88,0,0,0-.55-.52s-.09.06-.65.18l-.44-.08c-.06-.1-.13-.2-.2-.3a6,6,0,0,1,1,0,5.63,5.63,0,0,0-1.48-.68c-.45-.68-.91-1.34-1.37-2a6,6,0,0,1,.92.22,2.85,2.85,0,0,1-.32-.54c-1.2-1.1-2.72-2.32-2.5-2.16,3.39.46-8-4.18-13.21-.86.35-.28.65-.59,1-.86-.15-.11-.57.29-1.13.92a4.9,4.9,0,0,0-1,.89c.28-.27.63-.52.94-.78-2,2.25-5.71,7.24-6.72,5.2a13.08,13.08,0,0,0-.19,5.44,3.24,3.24,0,0,0-.31.62c-1.23,3.41-.39,7.08,2.78,10.11a3.93,3.93,0,0,0,.62.4c1.74,3.48,4.13,5.71,7,4.29-3.29,2.32,1.41-.47,0,1.3.42-.51.72-.9,1-1.24a15.12,15.12,0,0,0,8,.68c0,.67.11,1.4.23,2.26,0-.06.8-1.52,1.21-2.56.45-.12.88-.25,1.31-.39a4.36,4.36,0,0,0-.38,1.61c.67.28,2.32-1.47,3.48-3.06,2.18-1.35,3.69-3.11,3.87-4.93a13.68,13.68,0,0,0-.25-3.92c0,.07.08.14.26.15C231,134.76,229.69,133.47,229.15,133.8Zm-2.48-6.21c-1-2.21,1-.41,0,0Zm-14-9.62a.75.75,0,0,1-.77-.42C212.07,117.52,213.07,117.94,212.62,118Zm1.63,1.31a21.14,21.14,0,0,0-5,2.11,15.74,15.74,0,0,0,1.28-2.54A6.63,6.63,0,0,1,214.25,119.28Zm-5.86,0c.48-1.15-.47,2.18,0,0Zm-2.39,3.9a1.23,1.23,0,0,1,.46,0l-.25.18A.35.35,0,0,1,206,123.16ZM205.86,143l.31.35C205.94,143.32,204.36,143.1,205.86,143Zm10.72-3.09A3,3,0,0,1,216,139a6.33,6.33,0,0,0,1.63,1.08C217.37,140.34,217,140.35,216.58,139.91Z" transform="translate(-7.63 -4.39)"/><path d="M187.32,188.26l-.33.09c1.13-.3-.39,2.48.39,2.18C187.57,190.44,187.93,188.09,187.32,188.26Z" transform="translate(-7.63 -4.39)"/><path d="M180.76,199c.68-.4,1.41-2.5,1.68-2.6C181.51,196.77,181.24,198.73,180.76,199Z" transform="translate(-7.63 -4.39)"/><path d="M172.21,205.17c.82,1.17,1.46-1.74,1-1.82C173,203.31,171.58,204.21,172.21,205.17Z" transform="translate(-7.63 -4.39)"/><path d="M165,210.3c.59,1.79,2.67-2.48,2.48-2.37S164.69,209.2,165,210.3Z" transform="translate(-7.63 -4.39)"/><path d="M149.13,211.74c.14,3.45,4.12-1.43,3.85-1.37C152.51,210.5,149.09,210.54,149.13,211.74Z" transform="translate(-7.63 -4.39)"/><path d="M118.34,205.26c0,.67,1.84.92,1.59-.08C119.93,205.18,118.3,204.5,118.34,205.26Z" transform="translate(-7.63 -4.39)"/></svg>