<svg id="Layer_1" data-name="Layer 1" xmlns="http://www.w3.org/2000/svg" viewBox="0 0 275.29 275.32"><path d="M203.54,131.92c.29,2,.67,4,1.1,6,.13.07.18.25.23.43a28,28,0,0,0,2.1,6.93l.21,0,.2.48-.21-.06c.79,1.49,1.64,2.35,2.52,2.23l.27.28c-.84,1-.19.52.3.32.11.1.24.19.36.3a3.52,3.52,0,0,1-.19.51c.09-.18.17-.31.25-.46a9.86,9.86,0,0,0,1.87,1.28c0,.31-.09.56-.14.89l.44-.76a7.15,7.15,0,0,0,2.89.7c7.15.14,9.77-4.68,9.94-11,4.13-4.82,1.37-17.34-5.67-22.26-.52-1.1-1.07-2.1-1.59-3,.32-.06-.08-.68-.91-1.42a12,12,0,0,0-1.38-1.74c-2.27-2.31-4.63-2-6.78-.49.13-.27.2-.46.2-.46a11.37,11.37,0,0,0-.88,1,23.85,23.85,0,0,0-5.49,7.81,18.57,18.57,0,0,0-1.61,4.75C201.29,126.14,202.21,129.11,203.54,131.92Zm11.56,6.84a7.68,7.68,0,0,0,2.14-1.75,12.69,12.69,0,0,1-1.29,3.47A11.85,11.85,0,0,0,215.1,138.76Z" transform="translate(-6.69 -4.57)"/><path d="M253.55,57c-11.92-16-27.71-27.56-46.11-35.21-5-2.08-50-17.66-51.78-11.64-.12.38,2.32,1.47,6,2.89-.23,0-.38,0-.4.07-.08.27.32.6,1,1-2.12-.72-4.16-1.27-5-1.06.93-.25,26.29,16.17,28.59,11.37,7.84,1.8,9.91,7.68,21.09,7,1.58-.05-1.41-1.72-3.5-2.77a140.42,140.42,0,0,1,14.33,8.06c-3,2.79,3.44,4.6,8.67,6.07,1.48,1.15,2.91,2.37,4.34,3.6a13.28,13.28,0,0,1-1.65.81c1.39,2.17,6,4.86,10.17,7.6.83.92,1.69,1.81,2.47,2.77,1.56,1.89,3,3.88,4.46,5.92-.63,3.3,3.47,7.11,5.65,9,.28.5.59,1,.86,1.49,1.16,4.41,5.56,22.49,10.81,26q1.31,4.27,2.38,8.63a13.34,13.34,0,0,0,.21,6,9.49,9.49,0,0,1,1.07-.43c.24,1.18.45,2.36.68,3.54-.67,2.71,1.68,7,1.31,10a2.73,2.73,0,0,0,.25-.23c.05.4.12.8.17,1.2-.12,0-.22,0-.33,0,.41,3.86.77,6.57,1.1,8.45.06.91.11,1.81.15,2.72l-.29-.06c-2.11,6.64-1.91,9.59.51,9,0,.56,0,1.12,0,1.67-.12-.06-.21-.13-.34-.2-.16,3.24-.21,6.1-.09,8.74-.1,1.34-.19,2.69-.34,4a115.71,115.71,0,0,1-2.27,13.3c-2.07.85-3.4,2.42-1.77,6.08a3.7,3.7,0,0,1,.28-.28c-1.06,3.7-2.31,7.3-3.7,10.83a67.7,67.7,0,0,0-5.75,10.12l.92.5a120.26,120.26,0,0,1-10.73,17.15,6.58,6.58,0,0,0-.51-.85c-2.29,3.05-4.39,6.44-6.68,9.59A128.14,128.14,0,0,1,226,242.48c-4.41,3.41-8.79,6.64-13.33,9.63a128.84,128.84,0,0,1-34.68,15.22c0-.07,0-.14,0-.22a100.57,100.57,0,0,0-9.89,2.24,1.56,1.56,0,0,0,.16.2c-2.88.54-5.76,1-8.66,1.35a20.56,20.56,0,0,0-4-.67,2.62,2.62,0,0,1,1.58.89,122,122,0,0,1-16,.48c.05-.16.07-.3.13-.46a31.06,31.06,0,0,1-7.75-1.54,3.4,3.4,0,0,1,.71,1.54,117.3,117.3,0,0,1-13.29-2c-1-.2-1.89-.45-2.84-.67a58.94,58.94,0,0,0-11.6-3.35q-4.27-1.45-8.41-3.22c-1.16-2.39-3-4-5.37-2.43C58.78,243.17,33,212.39,22,176.52,21,168,19.75,159.43,17.38,155a128.81,128.81,0,0,1-1.06-14.45c-.49-33.92,13.09-68.5,37-92.76,1.22-1.08,2.46-2.15,3.77-3.14-.14,0-.24-.09-.37-.13.54-.51,1.06-1,1.61-1.54.31-.27.66-.54,1-.82,1.88-.49,3.85-2.22,7.55-5,4.44-3.36,9.07-4,8.19-6.42.62-.39,1.22-.78,1.85-1.16l.23.5c4.22-2.47,8-4.14,10.43-6.44,1.39-.72,2.81-1.4,4.22-2.09a1.94,1.94,0,0,1-.06.4l3.73-1.59L95,19.94c.45-.22.9-.42,1.35-.62a5.12,5.12,0,0,1,0,.56c14.81-6.89,30.42-4.19,45-9.47,2.29-.9-.4-2.07-4.35-3.13a49.51,49.51,0,0,1,5.74-.23q-3.34-.09-6.64,0a111.12,111.12,0,0,0-13.09-2.47,26.47,26.47,0,0,0-10.5,1.76l4.7.16c-2.51,1.84-4.25,2.14-5.21.93a3.11,3.11,0,0,1-.4-.69c-3.19,1.46-5.6,3.45-8.76,5.29q-5.28,1.5-10.36,3.41c-.33-.61-2.23-.64-1.36-2.54C88,14.16,71.66,22.1,72.34,22.6a65.31,65.31,0,0,0,6.42-2.67C72.67,22.82,51.85,31.76,50.3,38.32c.74.51,1.4,1,2,1.37l-1.06,1a11.87,11.87,0,0,1-1-2c-4.46,9.12-10.14,10-15.57,20.12a132.69,132.69,0,0,0-9.22,13.85A40.4,40.4,0,0,0,20,81.12C18,85.7,9.14,107.21,9.23,116.19c-.33,1.71-.64,3.44-.91,5.18A136.6,136.6,0,0,0,50.73,243.2a64.38,64.38,0,0,1,5.39,8c1.61,2.87,6.81,3.1,10,4.19a139.14,139.14,0,0,0,52.09,21.74c79.49,15.49,153.45-36.19,162.88-118A145.17,145.17,0,0,0,253.55,57ZM79.33,19.88l3.09-.13c-.61.29-1.21.6-1.82.9A13.85,13.85,0,0,1,79.33,19.88Zm89-3.58.3.09A2.24,2.24,0,0,1,168.33,16.3Zm88.59,67.27c.14-.16.23-.28.34-.43.06.14.13.28.18.42C257.27,83.57,257.1,83.55,256.92,83.57Z" transform="translate(-6.69 -4.57)"/><path d="M86.69,128a14.33,14.33,0,0,1-1.25,4.2c-1-.22,3.23-10.47-2.76-12.25a7.25,7.25,0,0,0-.5,2.1A16.19,16.19,0,0,0,80.83,119c1.92,2.83,0-1.19-.25-1.47a3.86,3.86,0,0,1,1.84.27c0-.09-.09-.21-.17-.36a22.73,22.73,0,0,0-2.71-3c3.83-.16-5.47-2.93-9.74-1.87-2,2.54-6.66,9.38-7.37,7.35a25,25,0,0,0-.16,6.27c-.11-.31-.42-.68-.64-.49s.33,1.15.64.82a97,97,0,0,0,1.4,10.65c-.91,9.08,1.38,17.12,12.48,13a8.53,8.53,0,0,0,3.72-2.89c2.9-.87,6-2.54,4.52-3.65a1.75,1.75,0,0,0-1.81,1,62.33,62.33,0,0,0,3-8.88c-.11-.9.14-1.31.33-1.2C86.89,131,87.44,127.93,86.69,128Zm-2.54-6.69c.13,0,.15,0-.36.18C81.52,121,85.11,120.72,84.15,121.3Zm-20.06,9.33c.35.14-.18.36,0,0Zm.29-1.51.46.31C65.2,129.87,64.22,129.46,64.38,129.12ZM76.7,140.59c-.18-.55-.35-1.09-.5-1.64a13.08,13.08,0,0,0,1.15-1.76A11.29,11.29,0,0,1,76.7,140.59Zm6.41-16.18c-.78-2.09,0-1.52,0,0ZM80,117.21l-.36-.35C80.12,116.54,80.26,116.67,80,117.21Zm-2.14-1.59c0-.13.7-1.45,0,0Zm-4.4-2.12c-.22,0-.36-.23-.41-.73C73.19,112.77,73.77,113.55,73.45,113.5Zm-3.66.46c1.29-1.64-1.63,2.78,0,0Zm0,3.28c.06-.13.12-.25.17-.34,0,.08-.07.17-.12.25.82-1.49,1.76-3.08,1.76-3.08a22.51,22.51,0,0,1,4.79,1.87,5,5,0,0,0-2.31,1c-1.75-.57-3.52,0-5,2.37l-.29.48c.37-.92.71-1.76,1-2.34-.36.74-.73,1.49-1.08,2.24A12.21,12.21,0,0,1,69.77,117.24Zm-2.3,2a.41.41,0,0,1-.46-.38C67.41,118.78,67.57,118.91,67.47,119.2Zm-.07.93c-.22.52-.86-.73,0,0ZM66,124.28c.18.35.48.13.83-.42-.31.81-.61,1.68-.9,2.59C65.78,126.35,65.74,125.79,66,124.28Zm-.39,2.63c-.27.33-.49.3-.64-.12C65.15,126.6,65.36,126.65,65.63,126.91Zm-1-.16c.51.23.43.33-.32.31Zm.34,1.52c-.3.31-.69.31-1.17,0A1,1,0,0,1,65,128.27ZM69.9,142.4v-.89a17,17,0,0,0,3.56,2.19C71.63,144.3,70.51,143.72,69.9,142.4Zm13.31-2.22s-.16,0-.3,0a35.52,35.52,0,0,0,.8-8.12C84.51,135.48,85,138.52,83.21,140.18Zm.72-17.64c-.47.09.2-.8.33-.88C85.2,122,85.09,122.36,83.93,122.54Zm1.33,2.69h0C84.47,122.24,86,124.76,85.26,125.23Z" transform="translate(-6.69 -4.57)"/><path d="M144.24,188.4a11.25,11.25,0,0,1-2,.76l-1.08.08a32.82,32.82,0,0,1-8-1.24c-.15,1.88-1.09,2-.23-.11a26.25,26.25,0,0,1-5.48,1.86,1,1,0,0,0,0-.78c-.15-.23-.61.37-.72.92-.52.09-1.16.2-1.93.36-4.28.16-8.14.21-11.12.07-1.56-1-3.92-.88-5.51-.94a.92.92,0,0,1-.38-.38c0,.14.13.24.18.38a2.4,2.4,0,0,1-1.31-.3c-1-.83-5,2.35-5.49,4.4a7.78,7.78,0,0,0-.12-3c-.64,2.69-.93,2.93-.85.71,0,3.73-.71,3.9-1.18,5.45.08-.27,2.64,3.78,2,3.3,0,0,20.92.4,27.21.19l1.21.1c-8.85,1.52-15.34,2.9-14.77,2.91,5.69.18,55.95,1.12,58.68-3.73a3.34,3.34,0,0,0,1.12-1.42c3.78-.44,7.28-.91,10.13-1.4.43,1,1.24,2.14.91-.15l.39-.08c.58,1.13,1.42,3.25.89,3.48.86-.37.49-3.78.81-3.81s.9-.08,1.55-.11l1.4,0a2.16,2.16,0,0,1,.26-.63,2,2,0,0,1,.18.63c1,0,1.82,0,1.86.18-.3,4.25,7.93-3.25,8.07-3.43a41.77,41.77,0,0,1-5,1.3c.4.18.68.62.35,1.62.08-.21-3.16-1.74-3.33-2.14.61-1.79,3.23.18,4.35-.27,3.11-1.26-5.46-3.74-7.92-3.1a11.51,11.51,0,0,0-1-1.08c.07-.14.18-.26.25-.41a1.9,1.9,0,0,0-.5.22c-6.45-5.35-18.58-2.68-26-1.55-1.19.19-4,.52-7.84.9a5.81,5.81,0,0,0-2.64.26c-2.5.24-5.28.49-8.21.73C144,188.92,144.29,188.72,144.24,188.4Zm-41.92,6.84c-.57.62-.73.28-.44-1C101.92,194.32,103.59,194.5,102.32,195.24Zm3.62-4.38-.52-.12C105.63,190.48,106.85,188.77,105.94,190.86ZM194.51,196l-.77-1.33C194,194.05,194.38,194,194.51,196Zm-83.59.46c0,.23-.48,2.28,0,0Zm-.14-2.95-.08.18c-1.29,2-1.4,1.77-.36-.61C110.48,193.27,110.64,193.41,110.78,193.55Zm-.91,2.68c-.23.19-.4,1.14-.48,0Zm-1.78,2.59a24.41,24.41,0,0,0,4,.73C110.85,199.88,107.92,200.5,108.09,198.82Zm4.62.57Zm.25-.91c-.28.26.13-.89.44-.62ZM113,196a3.06,3.06,0,0,1,0-.54c.18.13.35.28.54.41Z" transform="translate(-6.69 -4.57)"/></svg>