<svg id="Layer_1" data-name="Layer 1" xmlns="http://www.w3.org/2000/svg" viewBox="0 0 266.96 276.69"><path d="M79.12,55.3c.27,2,3.52.89,6,1a3.44,3.44,0,0,0,1.08.18c1.32.14,3.44.29,4.65.42.15,0,.18,0,.15-.14l.63.1c0,.58.13,1,.71.85.29-.09.67-.19,1.08-.28l.68-.16,1.56.25a2.5,2.5,0,0,0,.61-.09c.15.9,1.48-.35,1.43-.1a2.62,2.62,0,0,1,.18-.51.36.36,0,0,1,.32.08.74.74,0,0,1,0,.48c.12.24.14-.12.06-.43a.92.92,0,0,0-.12-.3l.13-.1c.27.11.59.35.72-.12a.51.51,0,0,0-.16-.52c1.54-1.95,1.64-5.16-1-6.39-6.84-3.14-18.18,2-18,4.5A1.21,1.21,0,0,0,79.12,55.3Zm13.33,1.75c-.69.25-.3-.19,0,0ZM81.2,55.68c0,.08-.06.77,0,0Zm.42.59c-.06.09,0-.29.08-.2Zm0-.8c0-.21,0-.28,0-.28S81.75,55.32,81.62,55.47Zm.53.19c.11-.37.15-.38.12,0S82.19,55.83,82.15,55.66Zm-2.7.07c-.08.23-.13.15-.15-.26C79.3,55.47,79.65,55.39,79.45,55.73Z" transform="translate(-10.19 -5.24)"/><path d="M184.17,56.7c.8,1.7,6.56,0,6.33,0,0,.07.4.13,1,.18,1.21.09,3.19.14,4.27.12.15,0,.2-.22.2-.5h.51c0,.76.1,1.43.73,1.13.27-.13.61-.27,1-.41a17.58,17.58,0,0,1,2.54-.85c0,1.82,1.37-.06,1.35.25.07-.66.2-.69.32-.57,3-1.51,2.92-7.1-.73-7.61-4.07-.57-19.2,4.34-16.32,6.6a3.93,3.93,0,0,0-.19.56C185.19,53.33,185,57.8,184.17,56.7Zm2.24.19a3.63,3.63,0,0,0,.72.13C186.9,57.16,186.38,57.41,186.41,56.89Zm.51-.81c0,.09-.07.78,0,0Zm-.19-.07c0,.06-.07.38-.09,0Zm.56.66c0,.09,0-.28.09-.2Zm0-.79v-.2C187.45,55.82,187.31,55.88,187.31,55.88Zm.6.17c0,.33-.08.19-.11,0C187.91,55.71,187.94,55.69,187.91,56.05Zm9.37.88c-.63.32-.28-.14,0,0Zm4.14-.14c-.08-.36.08-.69,0,0Zm-16.17-1s.32,0,.07.27S185.16,56.15,185.25,55.74Z" transform="translate(-10.19 -5.24)"/><path d="M87.83,94.14c-13.89-2.38-26.77,4.4-35.29,14.93-.57,0-.71-.42-.27-1.37a43,43,0,0,0-7.41,14.17c-.06-.32-.19-.49-.4-.28a3.89,3.89,0,0,0-.2,2.45c-.12.45-.22.9-.32,1.35a41.24,41.24,0,0,0-1.65,9.11,37.11,37.11,0,0,0,2.5,15.67c.15.57.29,1.12.45,1.67,2.69,9.1,7.28,15.7,15.88,18.71.26.09,2.89,1.42,6,2.72a2.3,2.3,0,0,1,.42-.28l1.47.5a6.6,6.6,0,0,1-1,.12c.59.24,1.18.46,1.78.68,0,5.06,18.79,2.19,23.87,1.09,4.35-.48,7.86-1.29,7.7-2.68,1.75-.88,3.61-1.83,5.4-2.92-1.7,1.34-3.38,2.7-5,4.17,1.82-.86,3.9-3,5.17-4.28a47,47,0,0,0,4.56-3.24c.08,0,.34-.22.69-.57a45,45,0,0,0,4.61-4.33,2.3,2.3,0,0,1,.32-.15c1.19-.45,2.38-2.26,3.5-4.7a35,35,0,0,0,1.93-3.1C136.34,128.35,113.69,98.55,87.83,94.14ZM51.64,124C58,105.21,79.43,96.6,97.32,104.73c10.36,4.7,19.1,15.74,21.77,27.41a8.3,8.3,0,0,0-2.44-4.23,8.46,8.46,0,0,0,2.53,4.67,31.06,31.06,0,0,1,.61,9.49,1.78,1.78,0,0,0-.12,1,24.83,24.83,0,0,1-7.28,14.58c-3.79,3.75-22.57,8.09-33.91,11.87-18.53-10.27-36-19-27-45C51.52,124.36,51.58,124.2,51.64,124Zm-2.73,34.43.4.15.52.72c-.17.23-.31.61.33,1.48C48.46,160.08,48.05,159.3,48.91,158.46ZM52,161.92c.18.2.36.41.55.61a.87.87,0,0,1-.77-.44A2.65,2.65,0,0,1,52,161.92Zm3.21,3.59c0-.21,0-.4.1.23C53.87,165.59,54.82,164.89,55.19,165.51Z" transform="translate(-10.19 -5.24)"/><path d="M159.86,142.32c.06.51,0,1,.12,1.54a32,32,0,0,0,4.75,13c-.26.08,0,.4.43.72,1,2.83,4.62,9.43,7,7a2.12,2.12,0,0,1,.24.2c-.75,3.33,1.55.89,1.63,3.48,0-.56-.11-1.12-.14-1.68,2.23,5.47,16.33,9.59,20.06,10,4,1.43,7.36,2,7.81.22-.13-.08-.27-.15-.41-.22a43,43,0,0,0,6.74-1.15l.8,0c1.29-.35-.1-.12-.32,0l-.35,0a45.86,45.86,0,0,0,6.54-2.24c-.59.36-1.2.68-1.78,1.07a8.62,8.62,0,0,0,2.59-1.39c.84-.38,1.65-.81,2.46-1.23a11.06,11.06,0,0,1,1.59-.18c1.53,0,4.3-2.42,7.14-5.5.08-.07.17-.12.24-.19a40.59,40.59,0,0,0,13.49-23.09c0-.12,0-.23.06-.36,2.95-14.69-1.37-31-13.46-40.67a39.23,39.23,0,0,0-38.49-6,1.88,1.88,0,0,1,.51-.62,38.88,38.88,0,0,0-10.8,6.16c-.73.57-1.47,1.12-2.18,1.71,0-.14-.07-.22-.26-.18s-.9.84-1.19,1.45a42.16,42.16,0,0,0-6.24,7.17,50.29,50.29,0,0,0-8.7,24,1.17,1.17,0,0,0-.05,1l0-.33c0,.12,0,.24,0,.36A29.74,29.74,0,0,0,159.86,142.32ZM182,107.42A35.48,35.48,0,0,1,192,102c2.49-.58,5-1.16,7.48-1.6l.9-.08c2.25.22,5.85.45,9.05.61a31.05,31.05,0,0,1,16,8.92,29.77,29.77,0,0,1,4.94,7,10.76,10.76,0,0,0-1.29-1.23c-1.78,1.1,1.56,3.81,3.06,5.17a39.08,39.08,0,0,1,1.05,22.87,7.73,7.73,0,0,0-.37-2.3c-1-.17-.51,2.88-.23,4.4A34,34,0,0,1,225,159c-5.58,5.88-14.84,10.8-23.08,10.9-2.78,0-19.48-5.5-25.76-6.13a3.31,3.31,0,0,0-.85-2c-5.23-19.19-15-32.79,2.65-50.82.31-.32.64-.59.95-.89A22.58,22.58,0,0,0,182,107.42Z" transform="translate(-10.19 -5.24)"/><path d="M147,190.23a.39.39,0,0,0,.2-.3c.67-2.64-1.81-.93-1.22-.27a2.73,2.73,0,0,0,.56.48c-.69-.13-1.38-.27-2.13-.37-8.12-1.07-15.33,5.14-17.66,12.58a1.23,1.23,0,0,0-.16.52,14.79,14.79,0,0,0,1.09,11.33,2.68,2.68,0,0,0,.36,1.15c-.27-.43-.51-.88-.76-1.32,1.58,2.93,5.12,9.87,4.86,9.65,1.61-1.32,2.56-.26.18.13a23.32,23.32,0,0,0,7.36,1.61c-.4.12-.89.49-.75.88s1.5-.31,1.18-.85a24.68,24.68,0,0,0,14.12-4.17,2.28,2.28,0,0,1-.49-.2c-.63-2.31.79-.7.84,0a26.35,26.35,0,0,0,6.65-6.33c.88-1.24,0-4-1.76-5.15.12-.39.25-.78.34-1.17a4.71,4.71,0,0,0,.48-.29l-.43,0c1.13-4.88.4-9.87-3.46-13.48.36,0,.71,0,1.06,0-1.26-1.24-1.84-1.28-2.25-1A20.6,20.6,0,0,0,147,190.23Zm-5.85,30.37c.12,0,.25,0,.37,0a.54.54,0,0,1-.38.5A.64.64,0,0,1,141.14,220.6Zm1.33,1.13a4.29,4.29,0,0,1,.15-.42,1.45,1.45,0,0,1,.09.46A.93.93,0,0,1,142.47,221.73Zm-1.12-.25a1.72,1.72,0,0,0-.21-.07C141.31,221.1,141.38,221.1,141.35,221.48Zm13.72-1.63a8.22,8.22,0,0,1-.82-1,1.57,1.57,0,0,1,.8.43C155.24,219.62,155.25,219.8,155.07,219.85Zm5.05-6.69c.19.21,1.32,1.78-.19.62Zm-3.57,5.35c.62,2.09-.74-.16-1-.65-.05-.16-.09-.29-.14-.42.1-.13.2-.25.29-.38C155.92,217.4,156.2,217.88,156.55,218.51Z" transform="translate(-10.19 -5.24)"/><path d="M253.7,58.66C242.77,43.6,228.07,31.19,212,21.94,208,19.65,167.54.67,165.84,8c-.19.81.7,1.87,2.33,3.11a2.74,2.74,0,0,0-.88-.1c1-.14,23.93,18.93,26.76,14.44,7.78,2.36,8.56,8.63,19.94,9.26,2.8.19-8.58-6.46-3.36-3.36.23.07.52.17.82.29a128.11,128.11,0,0,1,13.29,8.94c-5,2.86,3.87,5.67,9.2,7.79,1,1,2,1.9,3,2.88a10.08,10.08,0,0,1-2.45,1.09c1.45,2.88,7.26,6.21,11.59,9.41,1,1.26,1.93,2.52,2.83,3.83.75,1.08,1.43,2.22,2.13,3.34.11,4.84.92,6.5,4.87,10.43,2.73-.29,2.86,26.86,9.88,28,.33,1.67.62,3.34.9,5-.71,2.45-2,4.87-1.63,8.67,1.43-2,2.13-1.4,2.76-.46.07.72.17,1.43.24,2.15-4.15,1.27-.87,8-1.9,11.79.84-.63,1.68-1.26,2.52-1.87,0,1.28.1,2.57.12,3.86a5.76,5.76,0,0,0-2.71-1q.23,5,0,9.92a2.93,2.93,0,0,1,2.54-.3c0,.66-.05,1.33-.08,2a4.56,4.56,0,0,1-2.46-.26c-1.05,5.15-.53,7.29,1.93,8.08-.12,1.23-.24,2.43-.38,3.62-.55-.39-1.16-.8-1.89-1.22-.12,5.58-.41,9.86,0,13.69-.75,3.9-1.66,7.76-2.77,11.55-2.61.64-4.67,2-3,6.25a4.09,4.09,0,0,1,1.32-1c-1.14,3.32-2.44,6.59-3.85,9.79-2.91,2.95-5.18,6.82-7.49,11.18l1.44.86c-.3.52-.6,1-.91,1.56-.11,0-.13.11-.13.21q-2.69,4.54-5.73,8.86c-.63.47-1.25.93-1.84,1.39.24.07.48.1.72.15q-1.77,2.45-3.66,4.8a8.07,8.07,0,0,0-.81-1.71c-4.69,5.74-8.95,12-14.64,16.77a4.87,4.87,0,0,1,.23,1q-2.46,2.19-5,4.27a23.91,23.91,0,0,1,1.53-2.81,254.22,254.22,0,0,1-27.75,17.25,10,10,0,0,0,.95,1.59c-.94.45-1.88.92-2.83,1.34,0-.22.09-.45.11-.68a3.48,3.48,0,0,1-.25.75c-2.27,1-4.59,2-6.92,2.86-3.94.2-8.43.25-10.62,3.51-1.34.37-2.7.72-4.05,1-.1-.63-.2-1.24-.35-1.86-2.72.58-8.89,1.75-9.73,2.17a5.17,5.17,0,0,0,1.25,1.46c-2.15.34-4.32.63-6.49.86a41.59,41.59,0,0,0-7.09-1.56c1.48.38,2,1.06,1.59,2a111,111,0,0,1-16.79-.29c-.47-1.55-1.56-2.34-6.41-2.95a4,4,0,0,1,.75,2.28c-2.67-.39-5.33-.84-8-1.41q-2.82-.62-5.59-1.38c-1.92-2.21-13.15-6-16.59-5.93-1.49-.67-3-1.35-4.44-2.08a10.22,10.22,0,0,0-6-3.21c-2.37-1.35-4.7-2.77-7-4.28-2.6-2.7-5.62-6.17-8.65-6.22a139.83,139.83,0,0,1-31-34.21c2.38-1.16.83-2.07-1.67-2.7-.78-1.28-1.55-2.56-2.3-3.86a6.51,6.51,0,0,0,1.05.08,16.06,16.06,0,0,0-3.28-4.11C22.73,184.9,16.8,163,16.72,141c0-.39,0-.76,0-1.13,1.61-1.11,2.88-2.59.1-3.82.07-1.72.19-3.43.33-5.12,1.6-7.08,4.07-19.89,4.8-22.64,1.43-5,2.7-9.19,4-13A131.39,131.39,0,0,1,56.29,50.85a81.78,81.78,0,0,1,8.49-6.91,6.24,6.24,0,0,1-.76-.28l1.28-1.08c1.28,0,3-1,6.39-3.37,6-4.16,13.34-5.05,10.72-9.24.69-.44,1.37-.88,2.06-1.3.23.5.46,1,.73,1.63,4.57-2.69,12.63-4.78,12.88-9.08l.89-.43c1,.14,1.33.76.94,1.9l3.72-1.54c-.54-.6-1.07-1.2-1.61-1.79l2.25-1a4.36,4.36,0,0,1,.38,2.34c14.76-5.77,30.5-4.63,44.54-10.7,2-.93-.07-1.85-3.39-2.63,1.52-.16,3-.32,4.58-.42-1.57.1-3.13.25-4.69.39a106.74,106.74,0,0,0-14.88-2.12A28.15,28.15,0,0,0,121,7.3l4.24.08c-2.44,1.84-4.15,2.16-5.1,1a2.83,2.83,0,0,1-.34-.53c-5.48,2.63-8.91,6.55-17.41,8.6.19.11.33.24.5.36-.73.27-1.45.56-2.18.84-.13-.15-.3-.28-.39-.2l.24.25-.24-.25c2.29-2-1.89-1.06-.67-3.67-3.21,1.19-19.29,8.71-18.85,9a64.72,64.72,0,0,0,6.47-2.32c-6,2.35-27.31,10.9-28.82,17,1,.8,1.87,1.52,2.57,2.16l-1.2.95a11,11,0,0,1-1.47-2.79C53.24,47,47.29,47.38,41,58.58Q37.18,63,33.83,67.66c-2.93,3.22-5.87,6.4-7.92,10-3,5.26-16.31,31.48-12.83,37-.08-.13.06-.52.28-1a137.13,137.13,0,0,0-3.17,29.06A139.39,139.39,0,0,0,11,158.11a15.49,15.49,0,0,0,.08,1.7A151.23,151.23,0,0,0,23.93,204c1.77,6.49,7.4,14.34,11.51,20.11,2,2.83,4,5.63,6.19,8.34,3.67,4.88,6.91,9.13,9.68,15.43,1.57,3.54,8.69,3.78,11,5.91-2-1.91-3.44-3.13-4.37-4.16.08,0,.14.13.22.18a126.07,126.07,0,0,0,69.95,31.37c73.67,8.11,139.5-49.79,147.91-121.86C280,125.36,274.14,86.84,253.7,58.66ZM109.53,17.46c-1.16.33.06,2-.61,1.53,0-.28-.36-.4-.13-.1a10.64,10.64,0,0,1-.85-.73c-.54-.49-.78-.81-.81-1l.59-.22A8.46,8.46,0,0,1,109.53,17.46ZM38.86,214.33c-.26-.39-.49-.8-.75-1.2A2.16,2.16,0,0,1,38.86,214.33Zm54.05-194a2.28,2.28,0,0,1-.13.53c-.77.35-1.55.67-2.31,1a10.25,10.25,0,0,1-2.68-1.42Zm-14,6.21c1.69-1.1,2.75-1.21,3.57-.72-.9.48-1.81.95-2.7,1.44C79.52,27,79.27,26.77,78.94,26.51ZM259.55,90c.38-.44.74-.88,1.11-1.33.18.49.34,1,.51,1.48A6.51,6.51,0,0,0,259.55,90ZM233.37,234.12l-.47.51A2.18,2.18,0,0,1,233.37,234.12Z" transform="translate(-10.19 -5.24)"/><path d="M79.74,152.11a9.55,9.55,0,0,0,3.59-.8c2.47,1,4.52-.18,6-2.55,1.8-.8,3.19-1.37,3.5-1.19-1.52-2.67-1.65-3.88-.42-3.68l-.34-.18.08-.34a4.5,4.5,0,0,1,.69.62c.17.06.33.11.53.2-1-1.48-1-2.31-1.7-2.75.68-5.52-.55-11.38-4.39-12.45.27-1-.34-.63-.66-.14a8.45,8.45,0,0,0-5.3,1.56c-1,.07-1.45.52-1.58,1.14a8.67,8.67,0,0,0-3,5.18c-.43,0-.48.77-.18,1.66a16.09,16.09,0,0,0,.71,5.77,3.37,3.37,0,0,0,.15,1.84,4.65,4.65,0,0,0-.37-.57C78.11,147.55,79.8,152.15,79.74,152.11Zm10-4.11c0-.11.11-.22.17-.33C90.18,148,90.24,148.29,89.76,148Zm.88-1.67c.47.42.24.41-.22.23A.33.33,0,0,1,90.64,146.33Z" transform="translate(-10.19 -5.24)"/><path d="M192.55,148.81c3.17.17,12.25-5,13.09-4.54-.92-1.61-1.33-2.7-1.25-3.27a.67.67,0,0,1,.83-.42l-.33-.17.07-.34a4.5,4.5,0,0,1,.69.62c.17.06.33.11.53.2a13.23,13.23,0,0,1-1.08-2c1.21-5-.25-11-4.82-12.68l-.34-.1c.65-1.69-.5-.86-.66-.19-5.45-1.39-8.54,3-9,7.94-1.48-1.45-1.36,1.26,0,2.83,0,.26.06.52.09.76s.14.69.22,1c-.45,1.36-.78,3.67-.35,4.26a4.65,4.65,0,0,0-.37-.57C190.92,144.25,192.62,148.85,192.55,148.81Zm9.79-4.25-.2-.33c.1-.09.19-.19.28-.28C202.91,144.54,203.32,145.24,202.34,144.56Zm1.11-1.54c.52.48.19.42-.36.18l.18-.26.18.08-.18-.08Z" transform="translate(-10.19 -5.24)"/></svg>